<?xml version="1.0" encoding="UTF-8"?>
<svg width="512px" height="512px" viewBox="0 0 512 512" version="1.1" xmlns="http://www.w3.org/2000/svg" xmlns:xlink="http://www.w3.org/1999/xlink">
    <defs>
        <linearGradient x1="6.0110585%" y1="73.5072545%" x2="93.9889415%" y2="0%" id="linearGradient-1">
            <stop stop-color="#36ABF4" offset="0%"></stop>
            <stop stop-color="#5082D8" offset="100%"></stop>
        </linearGradient>
    </defs>
    <g stroke="none" stroke-width="1" fill="none" fill-rule="evenodd">
        <path d="M396.5296,65 C423.299063,65 445,86.7009373 445,113.4704 L445,304.282324 L444.959,304.306 L445,304.306921 L281.2,468 L281.199,392.437 L115.4704,392.437996 C88.7009373,392.437996 67,370.737058 67,343.967596 L67,153.158315 L155.2,65 L396.5296,65 Z M331.6,153.158315 L155.2,153.158315 L155.2,279.082324 C155.2,292.9999 166.482424,304.282324 180.4,304.282324 L180.4,304.282324 L356.8,304.282324 L356.8,178.358315 C356.8,164.44074 345.517576,153.158315 331.6,153.158315 L331.6,153.158315 Z M319,178.34565 C325.958788,178.34565 331.6,183.986862 331.6,190.94565 L331.6,279.094989 L193,279.094989 C186.041212,279.094989 180.4,273.453777 180.4,266.494989 L180.4,178.34565 L319,178.34565 Z" id="favicon" fill="url(#linearGradient-1)"></path>
    </g>
</svg>